<svg width="105" height="48" viewBox="0 0 105 48" fill="none" xmlns="http://www.w3.org/2000/svg">
<path fill-rule="evenodd" clip-rule="evenodd" d="M18 4L0 10V29.5L6 31.5V37L24 43V11.5L18 13.5V4ZM8 32.167L18 35.5V15.608L22 14.275V40.225L8 35.56V32.167Z" fill="#374151"/>
<path d="M42.9 20.45V31H47.346V20.45H50.876V17.058H39.39V20.451H42.9V20.45ZM53.105 25.248C53.105 29.226 55.405 31.254 59.481 31.254C63.381 31.254 65.877 29.401 65.877 25.209V17.059H61.43V25.053C61.43 26.886 61.04 27.783 59.48 27.783C57.9 27.783 57.51 26.886 57.51 25.073V17.058H53.104V25.248H53.105Z" fill="#374151"/>
<path fill-rule="evenodd" clip-rule="evenodd" d="M68.965 31V17.058H74.523C78.54 17.058 80.256 18.852 80.256 21.835V21.913C80.256 24.819 78.326 26.457 74.718 26.457H73.372V31H68.965ZM74.288 23.493H73.372V20.353H74.308C75.458 20.353 76.063 20.783 76.063 21.855V21.933C76.063 22.966 75.458 23.493 74.288 23.493Z" fill="#374151"/>
<path d="M82.563 31V17.058H86.99V27.588H92.06V31H82.563ZM94.562 17.058V31H104.78V27.607H98.969V25.521H103.337V22.421H98.969V20.451H104.468V17.058H94.562Z" fill="#374151"/>
</svg>
