<svg width="16" height="16" viewBox="0 0 16 16" fill="none" xmlns="http://www.w3.org/2000/svg">
<path d="M12.6666 5.33332V7.33332H3.88657L5.80657 5.41332C6.06657 5.15332 6.06657 4.73332 5.80657 4.47332C5.54657 4.21332 5.12657 4.21332 4.86657 4.47332L1.80657 7.53332C1.54657 7.79332 1.54657 8.21332 1.80657 8.47332L4.86657 11.5333C5.12657 11.7933 5.54657 11.7933 5.80657 11.5333C6.06657 11.2733 6.06657 10.8533 5.80657 10.5933L3.88657 8.66665H13.3332C13.6999 8.66665 13.9999 8.36665 13.9999 7.99999V5.33332C13.9999 4.96665 13.6999 4.66665 13.3332 4.66665C12.9666 4.66665 12.6666 4.96665 12.6666 5.33332Z" fill="white" fill-opacity="0.6"/>
</svg>
