<svg width="16" height="16" viewBox="0 0 16 16" fill="none" xmlns="http://www.w3.org/2000/svg">
<path d="M13.2346 12.1147H2.75034C2.34381 12.1147 2.00146 11.7831 2.00146 11.3658V3.79148C2.00146 3.38495 2.33311 3.0426 2.75034 3.0426H13.2346C13.6412 3.0426 13.9835 3.37425 13.9835 3.79148V11.3658C13.9835 11.7831 13.6519 12.1147 13.2346 12.1147Z" fill="#E3E3E3"/>
<path opacity="0.1" d="M3.49952 12.1149L7.98209 8.5096L8.01418 8.31703L3.39253 4.98987L3.38184 11.9544L3.49952 12.1149Z" fill="#231F20"/>
<path d="M2.75034 12.115C2.33311 12.115 2.00146 11.7834 2.00146 11.3661V3.78106C2.00146 3.36383 2.33311 3.28894 2.75034 3.28894C3.16758 3.28894 3.49922 3.37453 3.49922 3.78106V12.115H2.75034Z" fill="#D54B3D"/>
<path d="M2.75034 3.39592C3.28526 3.39592 3.39224 3.5564 3.39224 3.78106V12.008H2.75034C2.3973 12.008 2.10845 11.7192 2.10845 11.3661V3.78106C2.10845 3.5457 2.21543 3.39592 2.75034 3.39592ZM2.75034 3.28894C2.33311 3.28894 2.00146 3.37453 2.00146 3.78106V11.3661C2.00146 11.7834 2.33311 12.115 2.75034 12.115H3.49922V3.78106C3.49922 3.36383 3.16758 3.28894 2.75034 3.28894Z" fill="#D72B27"/>
<path d="M13.2347 12.115H12.4858V3.75966C12.4858 3.34243 12.8175 3.28894 13.2347 3.28894C13.652 3.28894 13.9836 3.34243 13.9836 3.75966V11.3768C13.9836 11.7834 13.652 12.115 13.2347 12.115Z" fill="#D54B3D"/>
<path d="M13.2347 3.39592C13.7161 3.39592 13.8766 3.49221 13.8766 3.75966V11.3768C13.8766 11.7299 13.5878 12.0187 13.2347 12.0187H12.5928V3.75966C12.5928 3.48151 12.7533 3.39592 13.2347 3.39592ZM13.2347 3.28894C12.8175 3.28894 12.4858 3.34243 12.4858 3.75966V12.1257H13.2347C13.652 12.1257 13.9836 11.7941 13.9836 11.3768V3.75966C13.9836 3.34243 13.652 3.28894 13.2347 3.28894Z" fill="#D72B27"/>
<path d="M10.0252 12.1148L2.06421 4.09196L2.48295 4.26229L8.02465 8.25274L13.9836 3.88318L13.9836 11.3766C13.9836 11.7832 13.6519 12.1148 13.2347 12.1148H10.0252Z" fill="url(#paint0_linear_1_60)"/>
<path d="M7.98201 8.51009L2.32264 4.40196C1.99099 4.1559 1.89471 3.68518 2.14077 3.35353C2.38683 3.02189 2.86825 2.947 3.21059 3.19306L7.99271 6.66999L12.8069 3.15027C13.1386 2.90421 13.6093 2.9791 13.8554 3.32144C14.1014 3.65309 14.0265 4.12381 13.6842 4.36987L7.98201 8.51009Z" fill="#D54B3D"/>
<path d="M13.2347 3.10698C13.438 3.10698 13.6306 3.20327 13.759 3.37444C13.9622 3.66329 13.898 4.05913 13.6199 4.27309L7.98189 8.38123L2.3867 4.31589C2.09785 4.10192 2.02296 3.69539 2.22623 3.41723C2.34391 3.25676 2.54718 3.14978 2.76114 3.14978C2.90022 3.14978 3.0393 3.19257 3.14628 3.27815L7.9177 6.74439L7.98189 6.78719L8.04608 6.74439L12.8496 3.22466C12.9673 3.14978 13.0957 3.10698 13.2347 3.10698ZM13.2347 3C13.085 3 12.9245 3.04279 12.7961 3.13908L7.98189 6.65881L3.19977 3.18187C3.07139 3.08559 2.91092 3.04279 2.75045 3.04279C2.51508 3.04279 2.27972 3.14978 2.12995 3.35304C1.89458 3.68469 1.99087 4.15541 2.32251 4.40147L7.98189 8.5203L13.6734 4.36938C14.005 4.12332 14.0799 3.66329 13.8445 3.32095C13.6948 3.10698 13.4701 3 13.2347 3Z" fill="#D72B27"/>
<defs>
<linearGradient id="paint0_linear_1_60" x1="2.06467" y1="7.9988" x2="13.9874" y2="7.9988" gradientUnits="userSpaceOnUse">
<stop stop-opacity="0.1"/>
<stop offset="1" stop-opacity="0.2"/>
</linearGradient>
</defs>
</svg>
