<svg width="16" height="16" viewBox="0 0 16 16" fill="none" xmlns="http://www.w3.org/2000/svg">
<path d="M5.66253 9.32506C7.68529 9.32506 9.32506 7.68529 9.32506 5.66253C9.32506 3.63977 7.68529 2 5.66253 2C3.63977 2 2 3.63977 2 5.66253C2 7.68529 3.63977 9.32506 5.66253 9.32506Z" fill="#4285F4"/>
<path d="M13.9998 6.01981C13.9998 6.431 13.6665 6.76423 13.2554 6.76423C12.8444 6.76423 12.511 6.431 12.511 6.01981C12.511 5.60865 12.8444 5.27539 13.2554 5.27539C13.6665 5.27539 13.9998 5.60865 13.9998 6.01981Z" fill="#34A853"/>
<path d="M12.66 7.83626C12.66 8.65848 11.9935 9.32507 11.1712 9.32507C10.3488 9.32507 9.68237 8.65848 9.68237 7.83626C9.68237 7.014 10.3489 6.34741 11.1712 6.34741C11.9935 6.34741 12.66 7.01402 12.66 7.83626Z" fill="#EA4335"/>
<path d="M12.958 11.6774C12.958 12.6642 12.1582 13.464 11.1714 13.464C10.1846 13.464 9.38477 12.6642 9.38477 11.6774C9.38477 10.6908 10.1845 9.89087 11.1714 9.89087C12.1582 9.89087 12.958 10.6908 12.958 11.6774Z" fill="#FBBC05"/>
</svg>
