<svg width="147" height="48" viewBox="0 0 147 48" fill="none" xmlns="http://www.w3.org/2000/svg">
<g clip-path="url(#clip0_101_180)">
<path fill-rule="evenodd" clip-rule="evenodd" d="M29.277 33.677C29.277 36.12 28.427 37.119 26.112 37.119H5.57001C3.25401 37.119 2.40501 36.119 2.40501 33.677V28.92C2.40501 26.626 1.30001 25.33 0.238006 24.736C0.164944 24.6917 0.104535 24.6293 0.062609 24.5549C0.0206832 24.4804 -0.00134277 24.3964 -0.00134277 24.311C-0.00134277 24.2256 0.0206832 24.1416 0.062609 24.0671C0.104535 23.9927 0.164944 23.9303 0.238006 23.886C1.34301 23.185 2.40501 21.719 2.40501 19.765V15.09C2.40501 12.456 3.12701 11.69 5.44201 11.69H26.24C28.556 11.69 29.278 12.456 29.278 15.09V19.763C29.278 21.717 30.34 23.183 31.444 23.883C31.764 24.096 31.764 24.543 31.444 24.733C30.382 25.349 29.278 26.645 29.278 28.918V33.676H29.277V33.677ZM9.81901 30.555C11.497 32.02 13.303 32.764 15.789 32.764C19.697 32.764 22.246 30.81 22.246 27.644C22.246 24.292 19.21 23.437 16.741 22.742C15.048 22.265 13.621 21.862 13.621 20.782C13.621 20.082 14.365 19.402 15.618 19.402C16.828 19.402 17.828 19.658 18.783 20.146C19.102 20.295 19.399 20.401 19.675 20.401C20.079 20.401 20.398 20.21 20.674 19.828L21.056 19.254C21.205 19.042 21.269 18.808 21.269 18.554C21.269 18.128 21.056 17.704 20.738 17.491C19.463 16.684 17.742 16.004 15.406 16.004C12.092 16.004 9.54301 17.746 9.54301 20.868C9.54301 24.358 12.645 25.245 15.129 25.953C16.786 26.426 18.167 26.82 18.167 27.857C18.167 28.855 17.233 29.344 16.064 29.344C14.6603 29.3574 13.2847 28.9506 12.114 28.176C11.752 27.942 11.412 27.793 11.051 27.793C10.731 27.793 10.456 27.942 10.201 28.261L9.69101 28.919C9.50101 29.132 9.43701 29.408 9.43701 29.663C9.43701 29.981 9.54301 30.3 9.81901 30.555ZM41.555 28.6C41.279 28.6 41.045 28.707 40.833 28.983L40.408 29.578C40.238 29.768 40.195 30.002 40.195 30.215C40.195 30.491 40.301 30.767 40.535 30.98C41.937 32.19 43.467 32.828 45.57 32.828C48.862 32.828 51.029 31.171 51.029 28.515C51.029 25.691 48.461 24.97 46.375 24.384C44.945 23.982 43.743 23.644 43.743 22.738C43.743 22.122 44.38 21.568 45.421 21.568C46.3444 21.5651 47.255 21.7843 48.076 22.207L48.14 22.231C48.392 22.329 48.625 22.419 48.84 22.419C49.16 22.419 49.436 22.269 49.67 21.929L50.01 21.442C50.1248 21.2573 50.1838 21.0434 50.18 20.826C50.18 20.465 50.01 20.104 49.733 19.934C48.65 19.211 47.205 18.659 45.23 18.659C42.447 18.659 40.28 20.146 40.28 22.779C40.28 25.707 42.895 26.454 44.992 27.052C46.395 27.452 47.566 27.787 47.566 28.664C47.566 29.534 46.78 29.939 45.782 29.939C44.486 29.939 43.402 29.578 42.447 28.939C42.171 28.728 41.831 28.599 41.555 28.599V28.6ZM61.841 30.895C61.8441 30.7137 61.7918 30.5358 61.691 30.385L61.416 29.939C61.161 29.493 60.864 29.323 60.481 29.323C60.291 29.323 60.078 29.365 59.801 29.471C59.526 29.578 59.207 29.62 58.846 29.62C57.72 29.62 57.231 28.643 57.231 27.177V22.25H60.481C61.097 22.25 61.607 21.74 61.607 21.124V20.104C61.607 19.489 61.097 18.979 60.481 18.979H57.231V16.345C57.231 15.729 56.721 15.219 56.106 15.219H54.895C54.279 15.219 53.769 15.729 53.769 16.345V27.305C53.769 30.768 54.916 32.744 57.954 32.744C59.292 32.744 60.312 32.468 61.331 31.851C61.671 31.681 61.841 31.278 61.841 30.896V30.895ZM68.723 24.14C65.983 24.14 63.795 25.542 63.795 28.515C63.795 31.128 65.558 32.658 67.959 32.679C69.785 32.679 71.229 31.978 71.952 30.959V31.404C71.952 32.02 72.462 32.53 73.078 32.53H73.864C74.48 32.53 74.99 32.02 74.99 31.404V24.31C74.99 20.742 73.609 18.703 69.616 18.703C68.235 18.703 66.896 19.063 65.728 19.595C65.368 19.765 65.091 20.168 65.091 20.551C65.0961 20.6734 65.1239 20.7938 65.173 20.906C65.189 20.951 65.206 20.996 65.218 21.039L65.388 21.399C65.601 21.825 65.962 22.038 66.408 22.038C66.542 22.038 66.688 21.998 66.828 21.96L66.938 21.93C67.576 21.719 68.235 21.57 69.254 21.57C71.124 21.57 71.761 22.632 71.761 24.608V25.012C71.101 24.522 69.913 24.141 68.723 24.141V24.14ZM69.403 26.455C70.38 26.455 71.145 26.667 71.761 27.114H71.781V28.514C71.357 29.089 70.614 29.726 69.169 29.726C68.065 29.726 67.236 29.153 67.236 28.133C67.236 26.986 68.256 26.455 69.403 26.455ZM86.312 30.895C86.3151 30.7137 86.2628 30.5358 86.162 30.385L85.887 29.939C85.632 29.493 85.335 29.323 84.952 29.323C84.762 29.323 84.549 29.365 84.272 29.471C83.996 29.578 83.678 29.62 83.317 29.62C82.191 29.62 81.702 28.643 81.702 27.177V22.25H84.952C85.568 22.25 86.078 21.74 86.078 21.124V20.104C86.078 19.489 85.568 18.979 84.952 18.979H81.702V16.345C81.702 15.729 81.192 15.219 80.576 15.219H79.366C78.75 15.219 78.24 15.729 78.24 16.345V27.305C78.24 30.768 79.387 32.744 82.424 32.744C83.763 32.744 84.782 32.468 85.802 31.851C86.142 31.681 86.312 31.278 86.312 30.896V30.895ZM93.194 24.14C90.454 24.14 88.266 25.542 88.266 28.515C88.266 31.128 90.05 32.658 92.429 32.679C94.256 32.679 95.701 31.978 96.423 30.959V31.404C96.423 32.02 96.933 32.53 97.549 32.53H98.335C98.951 32.53 99.461 32.02 99.461 31.404V24.31C99.461 20.742 98.08 18.703 94.086 18.703C92.706 18.703 91.366 19.063 90.199 19.595C89.838 19.765 89.562 20.168 89.562 20.551C89.5671 20.6734 89.5949 20.7938 89.644 20.906C89.66 20.951 89.677 20.996 89.689 21.039L89.859 21.399C90.072 21.825 90.433 22.038 90.879 22.038C91.013 22.038 91.159 21.998 91.299 21.96L91.409 21.93C92.047 21.719 92.706 21.57 93.725 21.57C95.595 21.57 96.232 22.632 96.232 24.608V25.012C95.572 24.522 94.384 24.141 93.194 24.141V24.14ZM93.874 26.455C94.851 26.455 95.616 26.667 96.232 27.114H96.252V28.514C95.828 29.089 95.085 29.726 93.64 29.726C92.536 29.726 91.707 29.153 91.707 28.133C91.707 26.986 92.727 26.455 93.874 26.455ZM110.676 18.745C109.019 18.745 107.426 19.403 106.47 20.465H106.407V20.082C106.407 19.466 105.897 18.956 105.281 18.956H104.07C103.454 18.956 102.944 19.466 102.944 20.082V31.362C102.944 31.978 103.454 32.488 104.07 32.488H105.281C105.897 32.488 106.407 31.978 106.407 31.362V23.417C107.023 22.504 108.021 21.973 109.232 21.973C110.676 21.973 111.462 22.886 111.462 24.31V31.32C111.462 31.935 111.972 32.445 112.588 32.445H113.799C114.415 32.445 114.925 31.935 114.925 31.319V24.5C114.925 24.324 114.918 24.104 114.913 23.906C114.908 23.744 114.903 23.596 114.903 23.501C115.371 22.588 116.39 21.951 117.686 21.951C119.322 21.951 120.002 22.864 120.002 24.541V31.361C120.002 31.977 120.511 32.487 121.127 32.487H122.338C122.954 32.487 123.464 31.977 123.464 31.361V23.671C123.464 19.954 121.616 18.743 119.152 18.743C117.07 18.743 115.562 19.635 114.606 20.91C114.118 19.678 112.737 18.743 110.676 18.743V18.745ZM129.284 16.28C130.261 16.28 131.26 15.494 131.26 14.113C131.26 12.903 130.261 12.117 129.284 12.117C128.116 12.117 127.118 12.903 127.118 14.113C127.118 15.493 128.116 16.28 129.284 16.28ZM130.941 20.104C130.941 19.488 130.431 18.978 129.815 18.978V18.956H128.605C127.989 18.956 127.479 19.466 127.479 20.082V31.362C127.479 31.978 127.989 32.488 128.605 32.488H129.815C130.431 32.488 130.941 31.978 130.941 31.362V20.104ZM141.881 21.888C142.752 21.888 143.453 22.037 144.26 22.418C144.403 22.498 144.558 22.53 144.698 22.558L144.833 22.588C145.237 22.588 145.619 22.334 145.853 21.952L146.299 21.166C146.405 21.016 146.427 20.846 146.427 20.676C146.427 20.295 146.235 19.849 145.896 19.679C144.579 18.956 143.262 18.659 141.456 18.659C137.335 18.659 134.467 21.803 134.467 25.733C134.467 29.981 137.42 32.806 141.881 32.806C143.559 32.806 144.982 32.509 146.597 31.213C146.851 31.022 147 30.618 147 30.257C147 30.024 146.936 29.79 146.788 29.641L146.278 29.004C146.165 28.8646 146.023 28.7522 145.861 28.675C145.699 28.5978 145.522 28.5579 145.343 28.558C145.11 28.558 144.855 28.643 144.621 28.792C143.835 29.302 143.07 29.578 142.008 29.578C139.969 29.578 138.121 28.091 138.121 25.712C138.121 23.354 139.948 21.888 141.881 21.888Z" fill="#374151"/>
</g>
<defs>
<clipPath id="clip0_101_180">
<rect width="147" height="48" fill="white"/>
</clipPath>
</defs>
</svg>
