<svg width="136" height="48" viewBox="0 0 136 48" fill="none" xmlns="http://www.w3.org/2000/svg">
<g clip-path="url(#clip0_101_173)">
<path fill-rule="evenodd" clip-rule="evenodd" d="M38.455 13.018C38.459 13.028 38.465 13.038 38.467 13.048C38.4812 13.1015 38.4886 13.1566 38.489 13.212V21.798C38.4893 21.9078 38.4607 22.0158 38.4061 22.1111C38.3515 22.2064 38.2729 22.2856 38.178 22.341L31.04 26.491V34.714C31.0402 34.8239 31.0114 34.9319 30.9566 35.0272C30.9019 35.1225 30.823 35.2018 30.728 35.257L15.829 43.917C15.7947 43.9356 15.7585 43.9503 15.721 43.961C15.707 43.967 15.694 43.975 15.679 43.979C15.5749 44.007 15.4651 44.007 15.361 43.979C15.3514 43.9765 15.342 43.9732 15.333 43.969L15.313 43.959C15.278 43.946 15.243 43.935 15.21 43.916L0.311001 35.257C0.216218 35.2016 0.137622 35.1223 0.0830524 35.027C0.0284829 34.9317 -0.000153033 34.8238 6.15061e-07 34.714V8.95599C0.000384893 8.90101 0.00743638 8.84628 0.0210006 8.79299C0.0270006 8.77399 0.0370006 8.75799 0.0430006 8.73999L0.0630006 8.68699C0.0685761 8.67185 0.075261 8.65715 0.0830006 8.64299C0.0950006 8.62299 0.112001 8.60599 0.126001 8.58699C0.144001 8.56199 0.159001 8.53699 0.181001 8.51399C0.199001 8.49599 0.221001 8.48399 0.241001 8.46699C0.264001 8.44899 0.285001 8.42899 0.310001 8.41399L7.76 4.08399C7.85412 4.02918 7.96109 4.00031 8.07 4.00031C8.17892 4.00031 8.28588 4.02918 8.38 4.08399L15.83 8.41399C15.855 8.42899 15.876 8.44899 15.899 8.46699L15.92 8.48299C15.934 8.49299 15.948 8.50299 15.96 8.51399C15.9749 8.5297 15.9883 8.54678 16 8.56499L16.015 8.58699C16.028 8.60699 16.045 8.62199 16.057 8.64299C16.074 8.67299 16.085 8.70699 16.097 8.73999L16.107 8.76199L16.119 8.79199C16.133 8.84553 16.1401 8.90065 16.14 8.95599V25.044L22.348 21.436V13.212C22.3483 13.1569 22.3557 13.1022 22.37 13.049C22.375 13.03 22.385 13.014 22.391 12.996L22.398 12.976C22.4104 12.9254 22.4368 12.8794 22.474 12.843C22.492 12.818 22.508 12.793 22.529 12.77C22.539 12.76 22.549 12.753 22.559 12.745C22.569 12.738 22.58 12.731 22.589 12.723L22.625 12.693C22.6354 12.6845 22.6464 12.6768 22.658 12.67L30.108 8.33999C30.2021 8.28518 30.3091 8.25631 30.418 8.25631C30.5269 8.25631 30.6339 8.28518 30.728 8.33999L38.178 12.67C38.204 12.685 38.224 12.706 38.247 12.723L38.269 12.739C38.282 12.749 38.296 12.759 38.307 12.77C38.322 12.7859 38.3354 12.8034 38.347 12.822L38.363 12.843L38.379 12.863C38.389 12.875 38.398 12.886 38.405 12.899C38.4185 12.9247 38.4299 12.9514 38.439 12.979L38.445 12.996L38.455 13.018ZM9.322 30.453L15.518 33.993L29.17 26.126L22.969 22.521L9.322 30.453ZM29.798 25.044V17.904L23.59 14.297V21.437L29.797 25.044H29.798ZM36.624 13.214L30.418 9.60599L24.213 13.213L30.418 16.819L36.624 13.213V13.214ZM8.691 13.648V29.374L14.899 25.765V10.04L8.69 13.648H8.691ZM14.275 8.95599L8.07 5.34999L1.864 8.95599L8.07 12.563L14.275 8.95599ZM7.449 13.65L1.241 10.04V34.35L14.9 42.29V35.08L7.765 31.004H7.763L7.759 31C7.734 30.985 7.714 30.965 7.692 30.947C7.6704 30.9347 7.65056 30.9196 7.633 30.902L7.631 30.9C7.618 30.887 7.607 30.871 7.596 30.856C7.59084 30.8485 7.58551 30.8412 7.58 30.834L7.55 30.796C7.54414 30.7887 7.53879 30.781 7.534 30.773L7.533 30.771C7.52331 30.7539 7.5156 30.7358 7.51 30.717L7.5 30.693L7.485 30.66C7.47926 30.6477 7.47457 30.635 7.471 30.622C7.46559 30.5997 7.46224 30.5769 7.461 30.554L7.458 30.529C7.4569 30.5203 7.45557 30.5116 7.454 30.503C7.452 30.489 7.449 30.474 7.449 30.459V13.65V13.651V13.65ZM16.14 35.08V42.29L29.797 34.353V27.21L16.14 35.08V35.081V35.08ZM31.04 25.043L37.248 21.435V14.295L31.04 17.905V25.045V25.043Z" fill="#374151"/>
<path d="M132.739 13.214H136V34.36H132.739V13.214ZM48.393 13.214H51.834V31.25H58.297V34.36H48.393V13.216V13.214Z" fill="#374151"/>
<path fill-rule="evenodd" clip-rule="evenodd" d="M68.576 20.525C69.384 20.928 70.006 21.481 70.446 22.185V20.283H73.707V34.36H70.446V32.457C70.007 33.162 69.384 33.716 68.576 34.117C67.768 34.521 66.956 34.722 66.136 34.722C65.079 34.722 64.112 34.526 63.234 34.132C62.3774 33.7551 61.608 33.2053 60.974 32.517C60.3439 31.8292 59.8471 31.0303 59.509 30.161C59.1561 29.256 58.9782 28.2923 58.985 27.321C58.985 26.335 59.159 25.393 59.509 24.497C59.8451 23.6219 60.3424 22.8177 60.975 22.126C61.6091 21.4375 62.3785 20.8874 63.235 20.51C64.112 20.117 65.079 19.92 66.137 19.92C66.955 19.92 67.767 20.122 68.576 20.525ZM69.309 30.463C69.676 30.047 69.96 29.565 70.147 29.043C70.347 28.491 70.449 27.909 70.447 27.322C70.447 26.717 70.347 26.142 70.147 25.6C69.9602 25.0778 69.6758 24.5959 69.309 24.18C68.9445 23.7733 68.5017 23.4444 68.007 23.213C67.4779 22.9672 66.9003 22.8435 66.317 22.851C65.697 22.851 65.139 22.971 64.64 23.213C64.1517 23.4473 63.7147 23.776 63.354 24.18C62.994 24.583 62.72 25.056 62.531 25.6C62.3397 26.1538 62.2436 26.7361 62.247 27.322C62.247 27.926 62.341 28.5 62.531 29.042C62.7086 29.5652 62.9883 30.0478 63.354 30.462C63.714 30.866 64.142 31.188 64.64 31.43C65.164 31.677 65.737 31.8 66.316 31.792C66.934 31.792 67.498 31.672 68.007 31.43C68.502 31.199 68.945 30.87 69.309 30.463ZM96.958 22.186C96.518 21.481 95.895 20.928 95.088 20.525C94.28 20.122 93.468 19.921 92.648 19.921C91.591 19.921 90.624 20.117 89.746 20.51C88.8895 20.8874 88.1201 21.4375 87.486 22.126C86.8538 22.8174 86.3569 23.6213 86.021 24.496C85.671 25.397 85.493 26.356 85.497 27.322C85.497 28.329 85.671 29.275 86.021 30.162C86.359 31.031 86.857 31.83 87.487 32.517C88.1209 33.2057 88.8903 33.7558 89.747 34.133C90.624 34.526 91.591 34.723 92.649 34.723C93.467 34.723 94.279 34.521 95.088 34.118C95.896 33.716 96.518 33.162 96.958 32.458V34.36H100.219V20.283H96.958V22.186ZM96.658 29.043C96.4713 29.5652 96.187 30.0471 95.82 30.463C95.4561 30.8698 95.0135 31.1988 94.519 31.43C93.9899 31.6759 93.4124 31.7996 92.829 31.792C92.21 31.792 91.651 31.672 91.152 31.43C90.6588 31.1932 90.2181 30.86 89.8558 30.45C89.4936 30.04 89.2172 29.5616 89.043 29.043C88.8514 28.4895 88.7551 27.9076 88.758 27.322C88.758 26.717 88.853 26.142 89.043 25.6C89.22 25.0766 89.4998 24.5938 89.866 24.18C90.226 23.776 90.664 23.447 91.152 23.213C91.6757 22.966 92.249 22.8422 92.828 22.851C93.446 22.851 94.01 22.971 94.518 23.213C95.028 23.455 95.461 23.778 95.82 24.18C96.18 24.583 96.459 25.056 96.659 25.6C96.857 26.143 96.958 26.717 96.958 27.322C96.958 27.926 96.858 28.5 96.658 29.042V29.043Z" fill="#374151"/>
<path d="M76.281 34.36H79.543V23.523H85.139V20.283H76.28V34.36H76.281ZM109.197 31.063L113.296 20.283H116.6L111.246 34.36H107.147L101.794 20.283H105.097L109.197 31.063Z" fill="#374151"/>
<path fill-rule="evenodd" clip-rule="evenodd" d="M123.714 19.92C119.72 19.92 116.558 23.235 116.558 27.32C116.558 31.84 119.618 34.722 124.132 34.722C126.658 34.722 128.271 33.747 130.241 31.624L128.038 29.903C128.036 29.903 126.374 32.107 123.893 32.107C121.009 32.107 119.794 29.759 119.794 28.545H130.615C131.183 23.895 128.155 19.921 123.714 19.921V19.92ZM119.803 26.098C119.828 25.828 120.204 22.536 123.688 22.536C127.172 22.536 127.595 25.826 127.619 26.098H119.803Z" fill="#374151"/>
</g>
<defs>
<clipPath id="clip0_101_173">
<rect width="136" height="48" fill="white"/>
</clipPath>
</defs>
</svg>
