<svg width="16" height="16" viewBox="0 0 16 16" fill="none" xmlns="http://www.w3.org/2000/svg">
<g clip-path="url(#clip0_102_397)">
<path d="M10.3333 9.33338H9.80667L9.62001 9.15338C10.42 8.22005 10.8333 6.94672 10.6067 5.59338C10.2933 3.74005 8.74667 2.26005 6.88 2.03338C4.06 1.68672 1.68667 4.06005 2.03334 6.88005C2.26001 8.74672 3.74001 10.2934 5.59334 10.6067C6.94667 10.8334 8.22001 10.4201 9.15334 9.62005L9.33334 9.80672V10.3334L12.1667 13.1667C12.44 13.4401 12.8867 13.4401 13.16 13.1667C13.4333 12.8934 13.4333 12.4467 13.16 12.1734L10.3333 9.33338ZM6.33334 9.33338C4.67334 9.33338 3.33334 7.99338 3.33334 6.33338C3.33334 4.67338 4.67334 3.33338 6.33334 3.33338C7.99334 3.33338 9.33334 4.67338 9.33334 6.33338C9.33334 7.99338 7.99334 9.33338 6.33334 9.33338Z" fill="white" fill-opacity="0.6"/>
</g>
<defs>
<clipPath id="clip0_102_397">
<path d="M0 0H16V10.6667C16 13.6122 13.6122 16 10.6667 16H5.33333C2.38782 16 0 13.6122 0 10.6667V0Z" fill="white"/>
</clipPath>
</defs>
</svg>
