<svg width="418" height="42" viewBox="0 0 418 42" fill="none" xmlns="http://www.w3.org/2000/svg">
<g clip-path="url(#clip0_101_150)">
<path d="M203.371 0.916046C177.358 -1.16195 126.685 2.87905 78.641 10.862L67.3 12.749C35.421 18.062 18.2 21.766 6.004 25.934C1.244 27.561 0.828001 27.778 0.874001 28.61C0.944001 29.824 1.702 29.731 10.469 27.434C19.541 25.057 27.619 23.514 49.715 19.938C123.565 7.98605 157.869 4.49205 195.942 5.04605C203.403 5.15405 215.192 6.74205 215.112 7.62805C215.005 8.81105 207.238 11.938 189.362 17.994C167.37 25.444 153.932 30.528 152.661 31.878C150.488 34.186 152.459 36.285 157.103 36.612C159.757 36.799 160.366 36.769 172.696 35.832C208.097 33.146 230.64 32.344 261.061 32.689C307.388 33.215 336.782 34.919 391.849 40.273C411.636 42.197 412.663 42.253 416.406 41.605L416.472 41.594C417.673 41.391 418.002 39.769 416.871 39.259C413.96 37.949 411.978 37.655 394.823 35.998C337.314 30.442 306.952 28.638 262.764 28.156C239.525 27.902 229.147 28.04 212.137 28.83C200.508 29.37 169.766 31.324 165.441 31.797C163.082 32.056 173.574 28.172 191.945 21.987C215.184 14.162 219.879 11.838 220.249 7.98205C220.666 3.63405 216.72 1.98205 203.371 0.916046Z" fill="#C3DDFD"/>
</g>
<defs>
<clipPath id="clip0_101_150">
<rect width="418" height="42" fill="white"/>
</clipPath>
</defs>
</svg>
